<svg xmlns="http://www.w3.org/2000/svg" width="1728" height="1728" viewBox="0 0 1728 1728"><path d="M1054.022 1567.72c-5.07 15.992-21.255 25.88-38.055 25.88h-.575c-22.177 0-42.45 12.538-52.378 32.37l-.403.808c-13.362 26.727-40.685 43.623-70.578 43.623h-56.064c-29.895 0-57.216-16.895-70.58-43.622l-.402-.807c-9.927-19.832-30.2-32.37-52.378-32.37h-.575c-16.78 0-32.967-9.888-38.035-25.88-8.43-26.517 11.136-50.92 36.403-50.92h307.2c25.267 0 44.832 24.403 36.422 50.92zM456.71 1140.19l-108.614 108.614c-14.995 14.995-14.995 39.302 0 54.298 7.488 7.507 17.318 11.25 27.15 11.25 9.83 0 19.66-3.743 27.147-11.25l108.614-108.615c14.995-14.996 14.995-39.303 0-54.298-14.975-14.995-39.32-14.995-54.297 0zM364.8 787.2c0-21.197-17.203-38.4-38.4-38.4H172.8c-21.197 0-38.4 17.203-38.4 38.4 0 21.196 17.203 38.4 38.4 38.4h153.6c21.197 0 38.4-17.204 38.4-38.4zM864 288c21.197 0 38.4-17.203 38.4-38.4V96c0-21.197-17.203-38.4-38.4-38.4S825.6 74.803 825.6 96v153.6c0 21.197 17.203 38.4 38.4 38.4zm380.14 157.46c9.83 0 19.643-3.745 27.15-11.252l108.614-108.614c14.995-14.995 14.995-39.303 0-54.298s-39.303-14.995-54.298 0L1216.992 379.91c-14.995 14.996-14.995 39.303 0 54.298 7.488 7.507 17.32 11.25 27.15 11.25zm-787.43-11.252c7.488 7.507 17.32 11.25 27.15 11.25s19.66-3.743 27.147-11.25c14.995-14.995 14.995-39.302 0-54.298L402.394 271.296c-14.976-14.995-39.32-14.995-54.298 0-14.995 14.995-14.995 39.303 0 54.298L456.71 434.208zM1555.2 748.8h-153.6c-21.196 0-38.4 17.203-38.4 38.4 0 21.196 17.204 38.4 38.4 38.4h153.6c21.196 0 38.4-17.204 38.4-38.4 0-21.197-17.204-38.4-38.4-38.4zm-283.91 391.392c-14.995-14.995-39.303-14.995-54.298 0s-14.995 39.302 0 54.297l108.614 108.613c7.507 7.508 17.318 11.252 27.148 11.252 9.83 0 19.642-3.744 27.15-11.252 14.994-14.995 14.994-39.302 0-54.297l-108.615-108.614zM1017.6 1420.8H710.4c-21.197 0-38.4 17.203-38.4 38.4 0 21.196 17.203 38.4 38.4 38.4h307.2c21.197 0 38.4-17.204 38.4-38.4 0-21.197-17.203-38.4-38.4-38.4zm38.4-57.6c0 21.196-17.203 38.4-38.4 38.4H710.4c-21.197 0-38.4-17.204-38.4-38.4 0-20.448 16.032-37.018 36.19-38.17C684.29 1108.953 460.8 1060.82 460.8 806.4c0-222.682 180.52-403.2 403.2-403.2s403.2 180.52 403.2 403.2c0 254.42-223.488 302.553-247.393 518.63 20.16 1.153 36.193 17.722 36.193 38.17zm-38.65-654.777c-13.074-39.11-53.01-83.962-123.936-93.696v-46.35c0-15.896-12.902-28.8-28.8-28.8s-28.8 12.903-28.8 28.8v47.194c-58.906 11.405-104.39 57.12-110.42 115.22-5.605 54.202 25.94 125.49 133.307 147.975 58.388 12.23 92.046 45.062 87.82 85.67-3.417 33.006-32.64 66.395-81.925 66.395-58.503 0-89.396-30.355-98.094-56.353-5.048-15.072-21.35-23.25-36.44-18.183-15.09 5.07-23.23 21.37-18.182 36.442 13.094 39.11 53.03 83.96 123.936 93.677v46.387c0 15.897 12.902 28.8 28.8 28.8s28.8-12.902 28.8-28.8v-47.193c58.906-11.405 104.39-57.12 110.42-115.22 5.605-54.2-25.94-125.49-133.307-147.974-58.387-12.23-92.044-45.062-87.82-85.67 3.418-33.006 32.64-66.395 81.927-66.395 58.502 0 89.414 30.355 98.093 56.353 5.05 15.072 21.293 23.252 36.44 18.183 15.092-5.05 23.233-21.35 18.184-36.46z"/></svg>